<?xml version="1.0" encoding="utf-8"?>
<svg width="1024px" height="1024px" viewBox="0 0 1024 1024" version="1.1" xmlns:xlink="http://www.w3.org/1999/xlink" xmlns="http://www.w3.org/2000/svg">
  <defs>
    <path d="M1024 0L1024 0L1024 1024L0 1024L0 0L1024 0Z" id="path_1" />
    <clipPath id="clip_1">
      <use xlink:href="#path_1" />
    </clipPath>
    <clipPath id="clip_2">
      <use xlink:href="#path_1" clip-rule="evenodd" fill-rule="evenodd" />
    </clipPath>
  </defs>
  <g id="Aiinno">
    <g clip-path="url(#clip_1)">
      <use xlink:href="#path_1" fill="none" stroke="#000000" stroke-width="2" />
    </g>
    <path d="M512 0C229.798 0 0 229.799 0 512C0 794.201 229.798 1024 512 1024C635.503 1024 744.689 974.408 833.249 901.249L919.431 993.811C938.208 1012.59 956.906 1006.34 975.684 987.561C994.462 968.783 1009.46 946.335 990.685 927.557L901.25 833.25C974.407 744.689 1024 635.503 1024 512C1024 229.799 794.201 0 512 0L512 0ZM511.997 95.9993C742.316 95.9993 927.996 281.68 927.996 511.998C927.996 742.316 742.316 927.997 511.997 927.997C281.679 927.997 95.9995 742.316 95.9995 511.998C95.9995 281.68 281.679 95.9993 511.997 95.9993L511.997 95.9993Z" id="Shape" fill="#FFFFFF" fill-rule="evenodd" stroke="none" clip-path="url(#clip_2)" />
    <g id="Group" transform="translate(222 231)" clip-path="url(#clip_2)">
      <path d="M278.5 39C287.062 39 294 45.9384 294 54.5L294 121.5C294 130.062 287.062 137 278.5 137L278.5 137C269.938 137 263 130.062 263 121.5L263 54.5C263 45.9384 269.938 39 278.5 39Z" id="Rectangle" fill="#FFFFFF" stroke="none" />
      <g id="Group" transform="translate(461 233)">
        <path d="M49 0L71 0Q72.2029 0 73.4043 0.0590226Q74.6057 0.118045 75.8028 0.235948Q76.9999 0.353851 78.1898 0.530351Q79.3796 0.70685 80.5594 0.941521Q81.7392 1.17619 82.906 1.46847Q84.0728 1.76074 85.2239 2.10992Q86.375 2.4591 87.5076 2.86434Q88.6402 3.26958 89.7515 3.7299Q90.8628 4.19023 91.9502 4.70452Q93.0376 5.21882 94.0984 5.78586Q95.1593 6.35289 96.191 6.9713Q97.2228 7.5897 98.2229 8.25799Q99.2231 8.92627 100.189 9.64283Q101.155 10.3594 102.085 11.1225Q103.015 11.8856 103.906 12.6934Q104.798 13.5012 105.648 14.3518Q106.499 15.2023 107.307 16.0936Q108.114 16.9849 108.878 17.9147Q109.641 18.8446 110.357 19.8107Q111.074 20.7769 111.742 21.7771Q112.41 22.7772 113.029 23.809Q113.647 24.8407 114.214 25.9016Q114.781 26.9624 115.295 28.0498Q115.81 29.1372 116.27 30.2485Q116.73 31.3598 117.136 32.4924Q117.541 33.625 117.89 34.776Q118.239 35.9271 118.532 37.094Q118.824 38.2608 119.058 39.4406Q119.293 40.6203 119.47 41.8102Q119.646 43.0001 119.764 44.1972Q119.882 45.3943 119.941 46.5957Q120 47.7971 120 49L120 75Q120 76.2029 119.941 77.4043Q119.882 78.6058 119.764 79.8028Q119.646 80.9999 119.47 82.1898Q119.293 83.3797 119.058 84.5594Q118.824 85.7392 118.532 86.906Q118.239 88.0729 117.89 89.224Q117.541 90.375 117.136 91.5076Q116.73 92.6402 116.27 93.7515Q115.81 94.8628 115.295 95.9502Q114.781 97.0376 114.214 98.0984Q113.647 99.1593 113.029 100.191Q112.41 101.223 111.742 102.223Q111.074 103.223 110.357 104.189Q109.641 105.155 108.878 106.085Q108.114 107.015 107.307 107.906Q106.499 108.798 105.648 109.648Q104.798 110.499 103.906 111.307Q103.015 112.114 102.085 112.878Q101.155 113.641 100.189 114.357Q99.2231 115.074 98.2229 115.742Q97.2228 116.41 96.191 117.029Q95.1593 117.647 94.0984 118.214Q93.0376 118.781 91.9502 119.295Q90.8628 119.81 89.7515 120.27Q88.6402 120.73 87.5076 121.136Q86.375 121.541 85.2239 121.89Q84.0728 122.239 82.906 122.532Q81.7392 122.824 80.5594 123.058Q79.3796 123.293 78.1898 123.47Q76.9999 123.646 75.8028 123.764Q74.6057 123.882 73.4043 123.941Q72.2029 124 71 124L49 124Q47.7971 124 46.5957 123.941Q45.3943 123.882 44.1972 123.764Q43.0001 123.646 41.8102 123.47Q40.6203 123.293 39.4406 123.058Q38.2608 122.824 37.094 122.532Q35.9271 122.239 34.776 121.89Q33.625 121.541 32.4924 121.136Q31.3598 120.73 30.2485 120.27Q29.1372 119.81 28.0498 119.295Q26.9624 118.781 25.9016 118.214Q24.8407 117.647 23.809 117.029Q22.7772 116.41 21.7771 115.742Q20.7769 115.074 19.8107 114.357Q18.8446 113.641 17.9147 112.878Q16.9849 112.114 16.0936 111.307Q15.2023 110.499 14.3518 109.648Q13.5012 108.798 12.6934 107.906Q11.8856 107.015 11.1225 106.085Q10.3594 105.155 9.64283 104.189Q8.92627 103.223 8.25799 102.223Q7.5897 101.223 6.9713 100.191Q6.35289 99.1593 5.78586 98.0984Q5.21882 97.0376 4.70452 95.9502Q4.19023 94.8628 3.7299 93.7515Q3.26958 92.6402 2.86434 91.5076Q2.4591 90.375 2.10992 89.2239Q1.76074 88.0729 1.46847 86.906Q1.17619 85.7392 0.941521 84.5594Q0.70685 83.3797 0.530351 82.1898Q0.353851 80.9999 0.235948 79.8028Q0.118045 78.6058 0.0590226 77.4043Q0 76.2029 0 75L0 49Q0 47.7971 0.0590226 46.5957Q0.118045 45.3943 0.235948 44.1972Q0.353851 43.0001 0.530351 41.8102Q0.70685 40.6203 0.941521 39.4406Q1.17619 38.2608 1.46847 37.094Q1.76074 35.9271 2.10992 34.776Q2.4591 33.625 2.86434 32.4924Q3.26958 31.3598 3.7299 30.2485Q4.19023 29.1372 4.70452 28.0498Q5.21882 26.9624 5.78586 25.9016Q6.35289 24.8407 6.9713 23.809Q7.5897 22.7772 8.25799 21.7771Q8.92627 20.7769 9.64283 19.8107Q10.3594 18.8446 11.1225 17.9147Q11.8856 16.9849 12.6934 16.0936Q13.5012 15.2023 14.3518 14.3518Q15.2023 13.5012 16.0936 12.6934Q16.9849 11.8856 17.9147 11.1225Q18.8446 10.3594 19.8107 9.64283Q20.7769 8.92627 21.7771 8.25799Q22.7772 7.5897 23.809 6.9713Q24.8407 6.35289 25.9016 5.78586Q26.9624 5.21882 28.0498 4.70452Q29.1372 4.19023 30.2485 3.7299Q31.3598 3.26958 32.4924 2.86434Q33.625 2.4591 34.776 2.10992Q35.9271 1.76074 37.094 1.46847Q38.2608 1.17619 39.4406 0.941521Q40.6203 0.70685 41.8102 0.530351Q43.0001 0.353851 44.1972 0.235948Q45.3943 0.118045 46.5957 0.0590226Q47.7971 0 49 0L49 0Z" id="Rectangle" fill="#FFFFFF" fill-rule="evenodd" stroke="none" />
        <path d="M54 23L62 23Q62.8346 23 63.6683 23.041Q64.5019 23.0819 65.3326 23.1637Q66.1632 23.2455 66.9888 23.368Q67.8144 23.4905 68.6331 23.6533Q69.4517 23.8161 70.2613 24.0189Q71.0709 24.2217 71.8697 24.464Q72.6684 24.7063 73.4542 24.9875Q74.2401 25.2687 75.0112 25.5881Q75.7823 25.9075 76.5368 26.2644Q77.2914 26.6212 78.0275 27.0147Q78.7636 27.4081 79.4795 27.8372Q80.1954 28.2663 80.8894 28.73Q81.5834 29.1937 82.2538 29.6909Q82.9242 30.1881 83.5694 30.7176Q84.2146 31.2471 84.833 31.8077Q85.4514 32.3682 86.0416 32.9584Q86.6318 33.5486 87.1923 34.167Q87.7528 34.7854 88.2823 35.4306Q88.8119 36.0758 89.3091 36.7462Q89.8062 37.4166 90.27 38.1106Q90.7337 38.8046 91.1627 39.5205Q91.5918 40.2364 91.9853 40.9725Q92.3788 41.7086 92.7356 42.4631Q93.0925 43.2176 93.4119 43.9888Q93.7313 44.7599 94.0125 45.5457Q94.2937 46.3316 94.5359 47.1303Q94.7782 47.929 94.981 48.7387Q95.1839 49.5483 95.3467 50.3669Q95.5095 51.1855 95.632 52.0112Q95.7545 52.8368 95.8363 53.6674Q95.9181 54.4981 95.959 55.3317Q96 56.1653 96 57L96 69Q96 69.8346 95.959 70.6683Q95.9181 71.5019 95.8363 72.3326Q95.7545 73.1632 95.632 73.9888Q95.5095 74.8144 95.3467 75.6331Q95.1839 76.4517 94.981 77.2613Q94.7782 78.071 94.5359 78.8697Q94.2937 79.6684 94.0125 80.4542Q93.7313 81.2401 93.4119 82.0112Q93.0925 82.7823 92.7356 83.5369Q92.3788 84.2914 91.9853 85.0275Q91.5918 85.7636 91.1628 86.4795Q90.7337 87.1954 90.27 87.8894Q89.8062 88.5834 89.309 89.2538Q88.8119 89.9242 88.2823 90.5694Q87.7528 91.2146 87.1923 91.833Q86.6318 92.4514 86.0416 93.0416Q85.4514 93.6318 84.833 94.1923Q84.2146 94.7528 83.5694 95.2823Q82.9242 95.8118 82.2538 96.309Q81.5834 96.8062 80.8894 97.27Q80.1954 97.7337 79.4795 98.1628Q78.7636 98.5919 78.0275 98.9853Q77.2914 99.3788 76.5368 99.7356Q75.7823 100.092 75.0112 100.412Q74.2401 100.731 73.4542 101.012Q72.6684 101.294 71.8697 101.536Q71.0709 101.778 70.2613 101.981Q69.4517 102.184 68.6331 102.347Q67.8144 102.51 66.9888 102.632Q66.1632 102.754 65.3326 102.836Q64.5019 102.918 63.6683 102.959Q62.8346 103 62 103L54 103Q53.1653 103 52.3317 102.959Q51.4981 102.918 50.6674 102.836Q49.8368 102.754 49.0112 102.632Q48.1855 102.51 47.3669 102.347Q46.5483 102.184 45.7387 101.981Q44.929 101.778 44.1303 101.536Q43.3316 101.294 42.5457 101.012Q41.7599 100.731 40.9888 100.412Q40.2176 100.092 39.4631 99.7356Q38.7086 99.3788 37.9725 98.9853Q37.2364 98.5919 36.5205 98.1628Q35.8046 97.7337 35.1106 97.27Q34.4166 96.8062 33.7462 96.309Q33.0758 95.8118 32.4306 95.2823Q31.7854 94.7528 31.167 94.1923Q30.5486 93.6318 29.9584 93.0416Q29.3682 92.4514 28.8077 91.833Q28.2471 91.2146 27.7176 90.5694Q27.1881 89.9242 26.6909 89.2538Q26.1937 88.5834 25.73 87.8894Q25.2663 87.1954 24.8372 86.4795Q24.4081 85.7636 24.0147 85.0275Q23.6212 84.2914 23.2644 83.5369Q22.9075 82.7823 22.5881 82.0112Q22.2687 81.2401 21.9875 80.4542Q21.7063 79.6684 21.464 78.8697Q21.2217 78.071 21.0189 77.2613Q20.8161 76.4517 20.6533 75.6331Q20.4905 74.8144 20.368 73.9888Q20.2455 73.1632 20.1637 72.3326Q20.0819 71.5019 20.041 70.6683Q20 69.8346 20 69L20 57Q20 56.1653 20.041 55.3317Q20.0819 54.4981 20.1637 53.6674Q20.2455 52.8368 20.368 52.0112Q20.4905 51.1855 20.6533 50.3669Q20.8161 49.5483 21.0189 48.7387Q21.2217 47.929 21.464 47.1303Q21.7063 46.3316 21.9875 45.5457Q22.2687 44.7599 22.5881 43.9888Q22.9075 43.2176 23.2644 42.4631Q23.6212 41.7086 24.0147 40.9725Q24.4081 40.2364 24.8372 39.5205Q25.2663 38.8046 25.73 38.1106Q26.1937 37.4166 26.6909 36.7462Q27.1881 36.0758 27.7176 35.4306Q28.2471 34.7854 28.8077 34.167Q29.3682 33.5486 29.9584 32.9584Q30.5486 32.3682 31.167 31.8077Q31.7854 31.2471 32.4306 30.7176Q33.0758 30.1881 33.7462 29.6909Q34.4166 29.1937 35.1106 28.73Q35.8046 28.2663 36.5205 27.8372Q37.2364 27.4081 37.9725 27.0147Q38.7086 26.6212 39.4631 26.2644Q40.2176 25.9075 40.9888 25.5881Q41.7599 25.2687 42.5457 24.9875Q43.3316 24.7063 44.1303 24.464Q44.929 24.2217 45.7387 24.0189Q46.5483 23.8161 47.3669 23.6533Q48.1855 23.4905 49.0112 23.368Q49.8368 23.2455 50.6674 23.1637Q51.4981 23.0819 52.3317 23.041Q53.1653 23 54 23Z" id="Rectangle" fill="#000000" fill-rule="evenodd" stroke="none" />
      </g>
      <g id="Group" transform="translate(0 233)">
        <path d="M49 0L71 0Q72.2029 0 73.4043 0.0590226Q74.6057 0.118045 75.8028 0.235948Q76.9999 0.353851 78.1898 0.530351Q79.3796 0.70685 80.5594 0.941521Q81.7392 1.17619 82.906 1.46847Q84.0728 1.76074 85.2239 2.10992Q86.375 2.4591 87.5076 2.86434Q88.6402 3.26958 89.7515 3.7299Q90.8628 4.19023 91.9502 4.70452Q93.0376 5.21882 94.0984 5.78586Q95.1593 6.35289 96.191 6.9713Q97.2228 7.5897 98.2229 8.25799Q99.2231 8.92627 100.189 9.64283Q101.155 10.3594 102.085 11.1225Q103.015 11.8856 103.906 12.6934Q104.798 13.5012 105.648 14.3518Q106.499 15.2023 107.307 16.0936Q108.114 16.9849 108.878 17.9147Q109.641 18.8446 110.357 19.8107Q111.074 20.7769 111.742 21.7771Q112.41 22.7772 113.029 23.809Q113.647 24.8407 114.214 25.9016Q114.781 26.9624 115.295 28.0498Q115.81 29.1372 116.27 30.2485Q116.73 31.3598 117.136 32.4924Q117.541 33.625 117.89 34.776Q118.239 35.9271 118.532 37.094Q118.824 38.2608 119.058 39.4406Q119.293 40.6203 119.47 41.8102Q119.646 43.0001 119.764 44.1972Q119.882 45.3943 119.941 46.5957Q120 47.7971 120 49L120 75Q120 76.2029 119.941 77.4043Q119.882 78.6058 119.764 79.8028Q119.646 80.9999 119.47 82.1898Q119.293 83.3797 119.058 84.5594Q118.824 85.7392 118.532 86.906Q118.239 88.0729 117.89 89.224Q117.541 90.375 117.136 91.5076Q116.73 92.6402 116.27 93.7515Q115.81 94.8628 115.295 95.9502Q114.781 97.0376 114.214 98.0984Q113.647 99.1593 113.029 100.191Q112.41 101.223 111.742 102.223Q111.074 103.223 110.357 104.189Q109.641 105.155 108.878 106.085Q108.114 107.015 107.307 107.906Q106.499 108.798 105.648 109.648Q104.798 110.499 103.906 111.307Q103.015 112.114 102.085 112.878Q101.155 113.641 100.189 114.357Q99.2231 115.074 98.2229 115.742Q97.2228 116.41 96.191 117.029Q95.1593 117.647 94.0984 118.214Q93.0376 118.781 91.9502 119.295Q90.8628 119.81 89.7515 120.27Q88.6402 120.73 87.5076 121.136Q86.375 121.541 85.2239 121.89Q84.0728 122.239 82.906 122.532Q81.7392 122.824 80.5594 123.058Q79.3796 123.293 78.1898 123.47Q76.9999 123.646 75.8028 123.764Q74.6057 123.882 73.4043 123.941Q72.2029 124 71 124L49 124Q47.7971 124 46.5957 123.941Q45.3943 123.882 44.1972 123.764Q43.0001 123.646 41.8102 123.47Q40.6203 123.293 39.4406 123.058Q38.2608 122.824 37.094 122.532Q35.9271 122.239 34.776 121.89Q33.625 121.541 32.4924 121.136Q31.3598 120.73 30.2485 120.27Q29.1372 119.81 28.0498 119.295Q26.9624 118.781 25.9016 118.214Q24.8407 117.647 23.809 117.029Q22.7772 116.41 21.7771 115.742Q20.7769 115.074 19.8107 114.357Q18.8446 113.641 17.9147 112.878Q16.9849 112.114 16.0936 111.307Q15.2023 110.499 14.3518 109.648Q13.5012 108.798 12.6934 107.906Q11.8856 107.015 11.1225 106.085Q10.3594 105.155 9.64283 104.189Q8.92627 103.223 8.25799 102.223Q7.5897 101.223 6.9713 100.191Q6.35289 99.1593 5.78586 98.0984Q5.21882 97.0376 4.70452 95.9502Q4.19023 94.8628 3.7299 93.7515Q3.26958 92.6402 2.86434 91.5076Q2.4591 90.375 2.10992 89.2239Q1.76074 88.0729 1.46847 86.906Q1.17619 85.7392 0.941521 84.5594Q0.70685 83.3797 0.530351 82.1898Q0.353851 80.9999 0.235948 79.8028Q0.118045 78.6058 0.0590226 77.4043Q0 76.2029 0 75L0 49Q0 47.7971 0.0590226 46.5957Q0.118045 45.3943 0.235948 44.1972Q0.353851 43.0001 0.530351 41.8102Q0.70685 40.6203 0.941521 39.4406Q1.17619 38.2608 1.46847 37.094Q1.76074 35.9271 2.10992 34.776Q2.4591 33.625 2.86434 32.4924Q3.26958 31.3598 3.7299 30.2485Q4.19023 29.1372 4.70452 28.0498Q5.21882 26.9624 5.78586 25.9016Q6.35289 24.8407 6.9713 23.809Q7.5897 22.7772 8.25799 21.7771Q8.92627 20.7769 9.64283 19.8107Q10.3594 18.8446 11.1225 17.9147Q11.8856 16.9849 12.6934 16.0936Q13.5012 15.2023 14.3518 14.3518Q15.2023 13.5012 16.0936 12.6934Q16.9849 11.8856 17.9147 11.1225Q18.8446 10.3594 19.8107 9.64283Q20.7769 8.92627 21.7771 8.25799Q22.7772 7.5897 23.809 6.9713Q24.8407 6.35289 25.9016 5.78586Q26.9624 5.21882 28.0498 4.70452Q29.1372 4.19023 30.2485 3.7299Q31.3598 3.26958 32.4924 2.86434Q33.625 2.4591 34.776 2.10992Q35.9271 1.76074 37.094 1.46847Q38.2608 1.17619 39.4406 0.941521Q40.6203 0.70685 41.8102 0.530351Q43.0001 0.353851 44.1972 0.235948Q45.3943 0.118045 46.5957 0.0590226Q47.7971 0 49 0L49 0Z" id="Rectangle" fill="#FFFFFF" fill-rule="evenodd" stroke="none" />
        <path d="M54 23L62 23Q62.8346 23 63.6683 23.041Q64.5019 23.0819 65.3326 23.1637Q66.1632 23.2455 66.9888 23.368Q67.8144 23.4905 68.6331 23.6533Q69.4517 23.8161 70.2613 24.0189Q71.0709 24.2217 71.8697 24.464Q72.6684 24.7063 73.4542 24.9875Q74.2401 25.2687 75.0112 25.5881Q75.7823 25.9075 76.5368 26.2644Q77.2914 26.6212 78.0275 27.0147Q78.7636 27.4081 79.4795 27.8372Q80.1954 28.2663 80.8894 28.73Q81.5834 29.1937 82.2538 29.6909Q82.9242 30.1881 83.5694 30.7176Q84.2146 31.2471 84.833 31.8077Q85.4514 32.3682 86.0416 32.9584Q86.6318 33.5486 87.1923 34.167Q87.7528 34.7854 88.2823 35.4306Q88.8119 36.0758 89.3091 36.7462Q89.8062 37.4166 90.27 38.1106Q90.7337 38.8046 91.1627 39.5205Q91.5918 40.2364 91.9853 40.9725Q92.3788 41.7086 92.7356 42.4631Q93.0925 43.2176 93.4119 43.9888Q93.7313 44.7599 94.0125 45.5457Q94.2937 46.3316 94.5359 47.1303Q94.7782 47.929 94.981 48.7387Q95.1839 49.5483 95.3467 50.3669Q95.5095 51.1855 95.632 52.0112Q95.7545 52.8368 95.8363 53.6674Q95.9181 54.4981 95.959 55.3317Q96 56.1653 96 57L96 69Q96 69.8346 95.959 70.6683Q95.9181 71.5019 95.8363 72.3326Q95.7545 73.1632 95.632 73.9888Q95.5095 74.8144 95.3467 75.6331Q95.1839 76.4517 94.981 77.2613Q94.7782 78.071 94.5359 78.8697Q94.2937 79.6684 94.0125 80.4542Q93.7313 81.2401 93.4119 82.0112Q93.0925 82.7823 92.7356 83.5369Q92.3788 84.2914 91.9853 85.0275Q91.5918 85.7636 91.1628 86.4795Q90.7337 87.1954 90.27 87.8894Q89.8062 88.5834 89.309 89.2538Q88.8119 89.9242 88.2823 90.5694Q87.7528 91.2146 87.1923 91.833Q86.6318 92.4514 86.0416 93.0416Q85.4514 93.6318 84.833 94.1923Q84.2146 94.7528 83.5694 95.2823Q82.9242 95.8118 82.2538 96.309Q81.5834 96.8062 80.8894 97.27Q80.1954 97.7337 79.4795 98.1628Q78.7636 98.5919 78.0275 98.9853Q77.2914 99.3788 76.5368 99.7356Q75.7823 100.092 75.0112 100.412Q74.2401 100.731 73.4542 101.012Q72.6684 101.294 71.8697 101.536Q71.0709 101.778 70.2613 101.981Q69.4517 102.184 68.6331 102.347Q67.8144 102.51 66.9888 102.632Q66.1632 102.754 65.3326 102.836Q64.5019 102.918 63.6683 102.959Q62.8346 103 62 103L54 103Q53.1653 103 52.3317 102.959Q51.4981 102.918 50.6674 102.836Q49.8368 102.754 49.0112 102.632Q48.1855 102.51 47.3669 102.347Q46.5483 102.184 45.7387 101.981Q44.929 101.778 44.1303 101.536Q43.3316 101.294 42.5457 101.012Q41.7599 100.731 40.9888 100.412Q40.2176 100.092 39.4631 99.7356Q38.7086 99.3788 37.9725 98.9853Q37.2364 98.5919 36.5205 98.1628Q35.8046 97.7337 35.1106 97.27Q34.4166 96.8062 33.7462 96.309Q33.0758 95.8118 32.4306 95.2823Q31.7854 94.7528 31.167 94.1923Q30.5486 93.6318 29.9584 93.0416Q29.3682 92.4514 28.8077 91.833Q28.2471 91.2146 27.7176 90.5694Q27.1881 89.9242 26.6909 89.2538Q26.1937 88.5834 25.73 87.8894Q25.2663 87.1954 24.8372 86.4795Q24.4081 85.7636 24.0147 85.0275Q23.6212 84.2914 23.2644 83.5369Q22.9075 82.7823 22.5881 82.0112Q22.2687 81.2401 21.9875 80.4542Q21.7063 79.6684 21.464 78.8697Q21.2217 78.071 21.0189 77.2613Q20.8161 76.4517 20.6533 75.6331Q20.4905 74.8144 20.368 73.9888Q20.2455 73.1632 20.1637 72.3326Q20.0819 71.5019 20.041 70.6683Q20 69.8346 20 69L20 57Q20 56.1653 20.041 55.3317Q20.0819 54.4981 20.1637 53.6674Q20.2455 52.8368 20.368 52.0112Q20.4905 51.1855 20.6533 50.3669Q20.8161 49.5483 21.0189 48.7387Q21.2217 47.929 21.464 47.1303Q21.7063 46.3316 21.9875 45.5457Q22.2687 44.7599 22.5881 43.9888Q22.9075 43.2176 23.2644 42.4631Q23.6212 41.7086 24.0147 40.9725Q24.4081 40.2364 24.8372 39.5205Q25.2663 38.8046 25.73 38.1106Q26.1937 37.4166 26.6909 36.7462Q27.1881 36.0758 27.7176 35.4306Q28.2471 34.7854 28.8077 34.167Q29.3682 33.5486 29.9584 32.9584Q30.5486 32.3682 31.167 31.8077Q31.7854 31.2471 32.4306 30.7176Q33.0758 30.1881 33.7462 29.6909Q34.4166 29.1937 35.1106 28.73Q35.8046 28.2663 36.5205 27.8372Q37.2364 27.4081 37.9725 27.0147Q38.7086 26.6212 39.4631 26.2644Q40.2176 25.9075 40.9888 25.5881Q41.7599 25.2687 42.5457 24.9875Q43.3316 24.7063 44.1303 24.464Q44.929 24.2217 45.7387 24.0189Q46.5483 23.8161 47.3669 23.6533Q48.1855 23.4905 49.0112 23.368Q49.8368 23.2455 50.6674 23.1637Q51.4981 23.0819 52.3317 23.041Q53.1653 23 54 23Z" id="Rectangle" fill="#000000" fill-rule="evenodd" stroke="none" />
      </g>
      <path d="M374 125C450.778 125 513 187.222 513 264L513 364C513 440.778 450.778 503 374 503L199 503C122.222 503 60 440.778 60 364L60 264C60 187.222 122.222 125 199 125L374 125Z" id="Rectangle" fill="#FFFFFF" stroke="none" />
      <path d="M366 154C433.388 154 488 208.612 488 276L488 352C488 419.388 433.388 474 366 474L206 474C138.612 474 84 419.388 84 352L84 276C84 208.612 138.612 154 206 154L366 154Z" id="Rectangle" fill="#000000" stroke="none" />
      <g id="Group" transform="translate(159 233)">
        <path d="M0 56.0303C0 25.0855 23.2123 0 51.8457 0C80.4793 0 103.692 25.0855 103.692 56.0303C103.692 86.9746 80.4793 112.06 51.8457 112.06C23.2123 112.06 0 86.9746 0 56.0303Z" id="Oval" fill="#FFFFFF" fill-rule="evenodd" stroke="none" />
        <path d="M28.9727 53.5943C28.9727 40.1399 39.2136 29.2333 51.8456 29.2333C64.4781 29.2333 74.7189 40.1399 74.7189 53.5943C74.7189 67.0486 64.4781 77.9551 51.8456 77.9551C39.2136 77.9551 28.9727 67.0486 28.9727 53.5943Z" id="Oval" fill="#000000" fill-rule="evenodd" stroke="none" />
      </g>
      <g id="Group" transform="translate(310 233)">
        <path d="M0 56.0303C0 25.0855 23.2127 0 51.8457 0C80.4789 0 103.692 25.0855 103.692 56.0303C103.692 86.9746 80.4789 112.06 51.8457 112.06C23.2127 112.06 0 86.9746 0 56.0303Z" id="Oval" fill="#FFFFFF" fill-rule="evenodd" stroke="none" />
        <path d="M28.9724 53.5943C28.9724 40.1399 39.2131 29.2333 51.8453 29.2333C64.4784 29.2333 74.7187 40.1399 74.7187 53.5943C74.7187 67.0486 64.4784 77.9551 51.8453 77.9551C39.2131 77.9551 28.9724 67.0486 28.9724 53.5943Z" id="Oval" fill="#000000" fill-rule="evenodd" stroke="none" />
      </g>
      <path d="M236 42C236 18.804 254.804 0 278 0C301.196 0 320 18.804 320 42C320 65.196 301.196 84 278 84C254.804 84 236 65.196 236 42Z" id="Oval" fill="#FFFFFF" fill-rule="evenodd" stroke="none" />
      <path d="M254 41C254 27.7452 264.745 17 278 17C291.255 17 302 27.7452 302 41C302 54.2548 291.255 65 278 65C264.745 65 254 54.2548 254 41Z" id="Oval" fill="#000000" fill-rule="evenodd" stroke="none" />
    </g>
  </g>
</svg>