<svg width="16" height="16" viewBox="0 0 16 16" fill="none" xmlns="http://www.w3.org/2000/svg">
<g id="&#229;&#164;&#154;&#232;&#175;&#173;&#232;&#168;&#128; 1" clip-path="url(#clip0_4080_3462)">
<path id="Vector" d="M7.99376 1C8.93971 1 9.856 1.18437 10.7161 1.54844C11.545 1.9 12.2927 2.40312 12.9342 3.04531L12.9545 3.06562L12.9764 3.08594L12.9889 3.09687C13.6101 3.73906 14.0987 4.47656 14.4421 5.29375C14.8027 6.15156 14.9838 7.05937 14.9838 7.99375C14.9838 8.72969 14.8683 9.46094 14.6388 10.1672L14.6373 10.1703L14.6357 10.1734C14.4375 10.7969 14.1362 11.4031 13.7413 11.9719L13.5633 12.2297V12.5422L14.6068 14.9922H7.99063C7.04312 14.9922 6.12683 14.8078 5.26829 14.4453C4.43629 14.0937 3.69327 13.5906 3.05951 12.9484L2.816 12.7031C2.28371 12.1156 1.85756 11.45 1.54693 10.7187C1.1801 9.85469 0.994341 8.9375 0.994341 7.99531C0.994341 7.05469 1.1801 6.13906 1.54693 5.27812C1.90127 4.44687 2.40859 3.69687 3.05327 3.05L3.29678 2.80625C3.87902 2.27969 4.54088 1.85781 5.26517 1.55156C6.13307 1.18438 7.04937 1 7.99376 1ZM7.99376 0C5.78498 0 3.78693 0.895312 2.34302 2.3375L2.35239 2.34219C0.903805 3.79062 0 5.7875 0 7.99219C0 10.2016 0.903805 12.2031 2.34302 13.6484H2.35239C3.78849 15.1031 5.78654 15.9891 7.99532 15.9891H14.9814H14.9955C15.3358 15.9891 15.6105 15.7219 15.6105 15.3734L14.567 12.5391C15.0025 11.9094 15.3569 11.2156 15.5926 10.4734C15.8455 9.69219 15.986 8.85781 15.986 7.99219C15.986 5.80312 15.0993 3.82031 13.682 2.37031L13.6429 2.33594C12.1959 0.895313 10.2072 0 7.99376 0Z" fill="white" fill-opacity="0.4"/>
<path id="Vector_2" d="M8.00008 3.29297C10.6003 3.29297 12.7082 5.40091 12.7082 8.00105C12.7082 10.6012 10.6003 12.7091 8.00008 12.7091C5.39982 12.7091 3.29199 10.6013 3.29199 8.00105C3.29199 5.4008 5.39982 3.29297 8.00008 3.29297ZM9.56103 8.39347H6.43913C6.52582 10.3961 7.26499 11.9245 8.00008 11.9245C8.73517 11.9245 9.47434 10.3961 9.56103 8.39347ZM5.65366 8.39347H4.09604C4.2401 9.84248 5.1723 11.0595 6.45793 11.6098C5.99602 10.8213 5.70329 9.67544 5.65366 8.39347ZM11.904 8.39347H10.3464C10.2969 9.67576 10.0042 10.8214 9.54233 11.6097C10.828 11.0598 11.7601 9.84248 11.904 8.39347ZM6.45772 4.39243L6.41421 4.41123C5.15071 4.96982 4.23784 6.17596 4.09583 7.60864H5.65366C5.70329 6.32646 5.99537 5.18091 6.45772 4.39243ZM8.00008 4.07769L7.97064 4.07844C7.24555 4.11851 6.52485 5.63294 6.43913 7.60875H9.56103C9.47434 5.60619 8.73506 4.07769 8.00008 4.07769ZM9.54233 4.39232L9.57112 4.44238C10.0168 5.2286 10.2979 6.3532 10.3464 7.60875H11.904C11.7601 6.15963 10.8276 4.94254 9.54233 4.39232Z" fill="white" fill-opacity="0.4"/>
</g>
<defs>
<clipPath id="clip0_4080_3462">
<rect width="16" height="16" fill="white"/>
</clipPath>
</defs>
</svg>
